<svg width="128" height="32" viewBox="0 0 128 32" fill="none" xmlns="http://www.w3.org/2000/svg">
    <path d="M39.294 16.592V18.122C39.294 19.094 39.048 19.97 38.556 20.75C38.064 21.53 37.41 22.142 36.594 22.586C35.79 23.018 34.932 23.234 34.02 23.234C32.88 23.234 31.848 22.958 30.924 22.406C30 21.842 29.274 21.074 28.746 20.102C28.218 19.118 27.954 18.026 27.954 16.826C27.954 15.662 28.23 14.594 28.782 13.622C29.334 12.65 30.084 11.882 31.032 11.318C31.98 10.754 33.024 10.472 34.164 10.472C34.74 10.472 35.358 10.568 36.018 10.76C36.678 10.94 37.242 11.234 37.71 11.642C38.19 12.05 38.43 12.554 38.43 13.154C38.43 13.682 38.256 14.132 37.908 14.504C37.56 14.864 37.14 15.044 36.648 15.044C36.42 15.044 36.186 15.002 35.946 14.918C35.718 14.822 35.526 14.69 35.37 14.522L36.198 13.496C36.354 13.628 36.498 13.694 36.63 13.694C36.762 13.694 36.864 13.652 36.936 13.568C37.008 13.472 37.044 13.352 37.044 13.208C37.044 12.764 36.726 12.428 36.09 12.2C35.466 11.96 34.83 11.84 34.182 11.84C33.282 11.84 32.466 12.062 31.734 12.506C31.014 12.95 30.45 13.556 30.042 14.324C29.634 15.08 29.43 15.92 29.43 16.844C29.43 17.816 29.628 18.686 30.024 19.454C30.432 20.222 30.984 20.816 31.68 21.236C32.376 21.656 33.156 21.866 34.02 21.866C34.704 21.866 35.334 21.704 35.91 21.38C36.486 21.056 36.942 20.612 37.278 20.048C37.626 19.484 37.806 18.854 37.818 18.158V17.96H33.552V16.592H39.294ZM45.3668 23.18C44.5148 23.18 43.7468 22.976 43.0628 22.568C42.3908 22.16 41.8628 21.602 41.4788 20.894C41.0948 20.174 40.9028 19.364 40.9028 18.464C40.9028 17.564 41.0948 16.754 41.4788 16.034C41.8748 15.302 42.4088 14.732 43.0808 14.324C43.7648 13.904 44.5328 13.694 45.3848 13.694C46.2368 13.694 46.9988 13.898 47.6708 14.306C48.3548 14.714 48.8888 15.284 49.2728 16.016C49.6568 16.736 49.8488 17.546 49.8488 18.446C49.8488 19.346 49.6568 20.156 49.2728 20.876C48.8888 21.596 48.3548 22.16 47.6708 22.568C46.9868 22.976 46.2188 23.18 45.3668 23.18ZM45.3848 21.848C46.2848 21.848 47.0048 21.536 47.5448 20.912C48.0968 20.288 48.3728 19.466 48.3728 18.446C48.3728 17.414 48.0968 16.586 47.5448 15.962C47.0048 15.338 46.2848 15.026 45.3848 15.026C44.7968 15.026 44.2748 15.17 43.8188 15.458C43.3628 15.746 43.0088 16.148 42.7568 16.664C42.5048 17.18 42.3788 17.774 42.3788 18.446C42.3788 19.466 42.6548 20.288 43.2068 20.912C43.7588 21.536 44.4848 21.848 45.3848 21.848ZM57.6873 21.902C57.4353 22.298 57.0393 22.604 56.4993 22.82C55.9593 23.036 55.4013 23.144 54.8253 23.144C53.9133 23.144 53.1753 22.916 52.6113 22.46C52.0473 21.992 51.7533 21.302 51.7293 20.39V16.718C51.7293 15.782 51.4773 15.098 50.9733 14.666L51.9633 13.748C52.2633 13.916 52.5393 14.216 52.7913 14.648C53.0553 15.08 53.1933 15.542 53.2053 16.034V19.922C53.2053 20.534 53.3373 21.002 53.6013 21.326C53.8653 21.65 54.3033 21.812 54.9153 21.812C55.4553 21.812 55.9113 21.686 56.2833 21.434C56.6553 21.182 57.0633 20.762 57.5073 20.174L57.5253 14H59.0013V21.326C59.0013 21.494 59.0373 21.626 59.1093 21.722C59.1933 21.806 59.3133 21.848 59.4693 21.848C59.6733 21.848 59.8353 21.746 59.9553 21.542L60.9633 22.208C60.8073 22.508 60.5793 22.748 60.2793 22.928C59.9913 23.096 59.6793 23.18 59.3433 23.18C58.8993 23.18 58.5153 23.054 58.1913 22.802C57.8793 22.538 57.7113 22.232 57.6873 21.884V21.902ZM66.1805 13.694C66.5285 13.694 66.9425 13.754 67.4225 13.874L67.3865 15.296C66.9065 15.164 66.5165 15.098 66.2165 15.098C65.6525 15.098 65.2145 15.23 64.9025 15.494C64.5425 15.782 64.2305 16.166 63.9665 16.646V23.018H62.4905V16.646C62.4905 15.71 62.2385 15.026 61.7345 14.594L62.7245 13.676C62.9045 13.784 63.0845 13.946 63.2645 14.162C63.4565 14.378 63.6125 14.624 63.7325 14.9C63.9965 14.564 64.2665 14.306 64.5425 14.126C64.9985 13.838 65.5445 13.694 66.1805 13.694ZM83.1721 22.208C83.0041 22.52 82.7821 22.766 82.5061 22.946C82.2421 23.114 81.9301 23.198 81.5701 23.198C81.0061 23.198 80.5561 23.036 80.2201 22.712C79.8961 22.376 79.7341 21.92 79.7341 21.344V16.7C79.6861 16.112 79.5421 15.698 79.3021 15.458C79.0621 15.218 78.7021 15.098 78.2221 15.098C77.7421 15.098 77.3101 15.218 76.9261 15.458C76.5541 15.686 76.2241 16.082 75.9361 16.646V23.018H74.4601V16.934C74.4601 16.346 74.3341 15.896 74.0821 15.584C73.8301 15.26 73.4581 15.098 72.9661 15.098C72.4741 15.098 72.0181 15.242 71.5981 15.53C71.1781 15.806 70.8721 16.16 70.6801 16.592V23.018H69.2041V16.7C69.2041 15.764 68.9521 15.08 68.4481 14.648L69.4381 13.73C69.6301 13.838 69.8221 14.012 70.0141 14.252C70.2061 14.48 70.3621 14.744 70.4821 15.044C70.8181 14.648 71.2081 14.336 71.6521 14.108C72.0961 13.88 72.5641 13.766 73.0561 13.766C73.5841 13.766 74.0701 13.898 74.5141 14.162C74.9581 14.426 75.3001 14.78 75.5401 15.224C75.8881 14.78 76.2961 14.426 76.7641 14.162C77.2321 13.898 77.7241 13.766 78.2401 13.766C79.1401 13.766 79.8601 14.012 80.4001 14.504C80.9401 14.996 81.2101 15.716 81.2101 16.664V21.398C81.2101 21.53 81.2521 21.644 81.3361 21.74C81.4201 21.824 81.5281 21.866 81.6601 21.866C81.8521 21.866 82.0021 21.758 82.1101 21.542L83.1721 22.208ZM87.9355 23.18C87.0475 23.18 86.2855 22.988 85.6495 22.604C85.0255 22.208 84.5515 21.68 84.2275 21.02C83.9035 20.348 83.7415 19.598 83.7415 18.77C83.7415 17.954 83.8975 17.162 84.2095 16.394C84.5215 15.626 84.9895 14.99 85.6135 14.486C86.2375 13.982 87.0055 13.73 87.9175 13.73C88.5175 13.73 89.0755 13.85 89.5915 14.09C90.1075 14.318 90.5155 14.654 90.8155 15.098C91.1275 15.53 91.2835 16.034 91.2835 16.61C91.2835 17.534 90.9055 18.26 90.1495 18.788C89.3935 19.316 88.4095 19.568 87.1975 19.544L85.3255 19.508C85.4575 20.252 85.7455 20.828 86.1895 21.236C86.6455 21.632 87.2455 21.83 87.9895 21.83C88.9615 21.83 89.8855 21.506 90.7615 20.858L91.5715 21.884C90.4315 22.748 89.2195 23.18 87.9355 23.18ZM87.1975 18.248C88.0015 18.248 88.6375 18.11 89.1055 17.834C89.5735 17.558 89.8075 17.144 89.8075 16.592C89.8075 16.1 89.6275 15.722 89.2675 15.458C88.9195 15.194 88.4995 15.062 88.0075 15.062C87.4555 15.062 86.9755 15.23 86.5675 15.566C86.1595 15.89 85.8475 16.298 85.6315 16.79C85.4155 17.282 85.2895 17.768 85.2535 18.248H87.1975ZM95.9241 23.18C95.0841 23.18 94.4481 22.928 94.0161 22.424C93.5961 21.908 93.3861 21.194 93.3861 20.282V11.678H94.8621V14H97.6161V15.332H94.8621V20.282C94.8621 20.714 94.9521 21.08 95.1321 21.38C95.3121 21.668 95.5761 21.812 95.9241 21.812C96.2721 21.812 96.5661 21.716 96.8061 21.524C97.0461 21.32 97.2321 21.05 97.3641 20.714L98.5161 21.452C97.9401 22.604 97.0761 23.18 95.9241 23.18Z" fill="#1A202C"/>
    <path d="M111.294 16.592V18.122C111.294 19.094 111.048 19.97 110.556 20.75C110.064 21.53 109.41 22.142 108.594 22.586C107.79 23.018 106.932 23.234 106.02 23.234C104.88 23.234 103.848 22.958 102.924 22.406C102 21.842 101.274 21.074 100.746 20.102C100.218 19.118 99.954 18.026 99.954 16.826C99.954 15.662 100.23 14.594 100.782 13.622C101.334 12.65 102.084 11.882 103.032 11.318C103.98 10.754 105.024 10.472 106.164 10.472C106.74 10.472 107.358 10.568 108.018 10.76C108.678 10.94 109.242 11.234 109.71 11.642C110.19 12.05 110.43 12.554 110.43 13.154C110.43 13.682 110.256 14.132 109.908 14.504C109.56 14.864 109.14 15.044 108.648 15.044C108.42 15.044 108.186 15.002 107.946 14.918C107.718 14.822 107.526 14.69 107.37 14.522L108.198 13.496C108.354 13.628 108.498 13.694 108.63 13.694C108.762 13.694 108.864 13.652 108.936 13.568C109.008 13.472 109.044 13.352 109.044 13.208C109.044 12.764 108.726 12.428 108.09 12.2C107.466 11.96 106.83 11.84 106.182 11.84C105.282 11.84 104.466 12.062 103.734 12.506C103.014 12.95 102.45 13.556 102.042 14.324C101.634 15.08 101.43 15.92 101.43 16.844C101.43 17.816 101.628 18.686 102.024 19.454C102.432 20.222 102.984 20.816 103.68 21.236C104.376 21.656 105.156 21.866 106.02 21.866C106.704 21.866 107.334 21.704 107.91 21.38C108.486 21.056 108.942 20.612 109.278 20.048C109.626 19.484 109.806 18.854 109.818 18.158V17.96H105.552V16.592H111.294ZM117.367 23.18C116.515 23.18 115.747 22.976 115.063 22.568C114.391 22.16 113.863 21.602 113.479 20.894C113.095 20.174 112.903 19.364 112.903 18.464C112.903 17.564 113.095 16.754 113.479 16.034C113.875 15.302 114.409 14.732 115.081 14.324C115.765 13.904 116.533 13.694 117.385 13.694C118.237 13.694 118.999 13.898 119.671 14.306C120.355 14.714 120.889 15.284 121.273 16.016C121.657 16.736 121.849 17.546 121.849 18.446C121.849 19.346 121.657 20.156 121.273 20.876C120.889 21.596 120.355 22.16 119.671 22.568C118.987 22.976 118.219 23.18 117.367 23.18ZM117.385 21.848C118.285 21.848 119.005 21.536 119.545 20.912C120.097 20.288 120.373 19.466 120.373 18.446C120.373 17.414 120.097 16.586 119.545 15.962C119.005 15.338 118.285 15.026 117.385 15.026C116.797 15.026 116.275 15.17 115.819 15.458C115.363 15.746 115.009 16.148 114.757 16.664C114.505 17.18 114.379 17.774 114.379 18.446C114.379 19.466 114.655 20.288 115.207 20.912C115.759 21.536 116.485 21.848 117.385 21.848Z" fill="#C53030"/>
    <rect x="4" y="21" width="9" height="1" fill="#1A202C"/>
    <rect x="6" y="18" width="7" height="1" fill="#1A202C"/>
    <rect x="9" y="15" width="4" height="1" fill="#1A202C"/>
    <rect x="10" y="12" width="3" height="1" fill="#1A202C"/>
    <rect x="11" y="9" width="2" height="1" fill="#1A202C"/>
    <path d="M16 15C16 15 18 14.5 19.5 14.5C21 14.5 23 15 23 15L23.5 24L19.5 25L16 24V15Z" fill="#C53030"/>
    <mask id="path-9-inside-1_55_630" fill="white">
    <path d="M15 9H24V24H15V9Z"/>
    </mask>
    <path d="M23 9V24H25V9H23ZM16 24V9H14V24H16Z" fill="#1A202C" mask="url(#path-9-inside-1_55_630)"/>
    <path d="M15.544 9.6939C15.5335 9.6896 15.5233 9.68537 15.5134 9.68123C15.5479 9.28541 15.6474 8.97609 15.7876 8.73119C15.9623 8.42603 16.2177 8.19027 16.5554 8.00806C17.2533 7.63156 18.2702 7.5 19.5 7.5C20.7298 7.5 21.7467 7.63156 22.4446 8.00806C22.7823 8.19027 23.0377 8.42603 23.2124 8.73119C23.3526 8.97609 23.4521 9.28541 23.4866 9.68123C23.4767 9.68537 23.4665 9.6896 23.456 9.6939C23.2404 9.78265 22.9256 9.90219 22.5352 10.022C21.7521 10.2624 20.6783 10.5 19.5 10.5C18.3217 10.5 17.2479 10.2624 16.4648 10.022C16.0744 9.90219 15.7596 9.78265 15.544 9.6939Z" stroke="#1A202C"/>
    <path d="M15.544 16.6939C15.5335 16.6896 15.5233 16.6854 15.5134 16.6812C15.5479 16.2854 15.6474 15.9761 15.7876 15.7312C15.9623 15.426 16.2177 15.1903 16.5554 15.0081C17.2533 14.6316 18.2702 14.5 19.5 14.5C20.7298 14.5 21.7467 14.6316 22.4446 15.0081C22.7823 15.1903 23.0377 15.426 23.2124 15.7312C23.3526 15.9761 23.4521 16.2854 23.4866 16.6812C23.4767 16.6854 23.4665 16.6896 23.456 16.6939C23.2404 16.7827 22.9256 16.9022 22.5352 17.022C21.7521 17.2624 20.6783 17.5 19.5 17.5C18.3217 17.5 17.2479 17.2624 16.4648 17.022C16.0744 16.9022 15.7596 16.7827 15.544 16.6939Z" stroke="#1A202C"/>
    <path d="M23.5 23.5C23.5 23.5 21.9853 25 19.5 25C17.0147 25 15.5 23.5 15.5 23.5" stroke="#1A202C"/>
    </svg>
    