<svg width="127" height="120" viewBox="0 0 127 120" fill="none" xmlns="http://www.w3.org/2000/svg">
    <g filter="url(#filter0_d_163_565)">
    <path fill-rule="evenodd" clip-rule="evenodd" d="M109 11.4015L115.5 24.2059C81.5 35.9015 76.5588 40.4556 62.4998 53.2059C42.2285 71.5902 27 96.4015 27 107.901C17.5 107.901 12 99.9015 12 99.9015C22.2244 76.4239 68 24.597 109 11.4015Z" fill="#276749"/>
    <path fill-rule="evenodd" clip-rule="evenodd" d="M106.488 21.0052L110 21.0052C99.8871 21.0118 96.451 27.2353 91.5001 29.4017C84.3616 32.5254 67.1176 42.2575 66 45.4015C63.4919 44.5099 64 43.4016 64 43.4016C68.981 37.9425 94.3808 20.7649 106.488 21.0052Z" fill="#38A169"/>
    </g>
    <defs>
    <filter id="filter0_d_163_565" x="0.7" y="0.101489" width="126.1" height="119.1" filterUnits="userSpaceOnUse" color-interpolation-filters="sRGB">
    <feFlood flood-opacity="0" result="BackgroundImageFix"/>
    <feColorMatrix in="SourceAlpha" type="matrix" values="0 0 0 0 0 0 0 0 0 0 0 0 0 0 0 0 0 0 127 0" result="hardAlpha"/>
    <feOffset/>
    <feGaussianBlur stdDeviation="5.65"/>
    <feComposite in2="hardAlpha" operator="out"/>
    <feColorMatrix type="matrix" values="0 0 0 0 0 0 0 0 0 0 0 0 0 0 0 0 0 0 0.64 0"/>
    <feBlend mode="normal" in2="BackgroundImageFix" result="effect1_dropShadow_163_565"/>
    <feBlend mode="normal" in="SourceGraphic" in2="effect1_dropShadow_163_565" result="shape"/>
    </filter>
    </defs>
    </svg>
    