<svg width="82" height="81" viewBox="0 0 82 81" fill="none" xmlns="http://www.w3.org/2000/svg">
    <g filter="url(#filter0_d_152_552)">
    <path fill-rule="evenodd" clip-rule="evenodd" d="M42.5889 4C58.8923 4 72 17.5616 72 34.1546C72 50.94 59.0815 65 42.5889 65C25.2091 65 10 51.8429 10 34.1546C10 16.6489 25.3886 4 42.5889 4Z" fill="#742A2A"/>
    <path fill-rule="evenodd" clip-rule="evenodd" d="M52.0382 10C57.5603 10 62 14.6688 62 20.3811C62 26.1597 57.6244 31 52.0382 31C46.1515 31 41 26.4705 41 20.3811C41 14.3545 46.2123 10 52.0382 10Z" fill="#9B2C2C"/>
    <path fill-rule="evenodd" clip-rule="evenodd" d="M30.3075 15C33.463 15 36 17.6679 36 20.932C36 24.2341 33.4997 27 30.3075 27C26.9437 27 24 24.4117 24 20.932C24 17.4883 26.9784 15 30.3075 15Z" fill="#9B2C2C"/>
    <path fill-rule="evenodd" clip-rule="evenodd" d="M58.3075 35C61.463 35 64 37.6679 64 40.932C64 44.2341 61.4997 47 58.3075 47C54.9437 47 52 44.4117 52 40.932C52 37.4883 54.9784 35 58.3075 35Z" fill="#9B2C2C"/>
    </g>
    <defs>
    <filter id="filter0_d_152_552" x="0" y="0" width="82" height="81" filterUnits="userSpaceOnUse" color-interpolation-filters="sRGB">
    <feFlood flood-opacity="0" result="BackgroundImageFix"/>
    <feColorMatrix in="SourceAlpha" type="matrix" values="0 0 0 0 0 0 0 0 0 0 0 0 0 0 0 0 0 0 127 0" result="hardAlpha"/>
    <feOffset dy="6"/>
    <feGaussianBlur stdDeviation="5"/>
    <feComposite in2="hardAlpha" operator="out"/>
    <feColorMatrix type="matrix" values="0 0 0 0 0 0 0 0 0 0 0 0 0 0 0 0 0 0 0.64 0"/>
    <feBlend mode="normal" in2="BackgroundImageFix" result="effect1_dropShadow_152_552"/>
    <feBlend mode="normal" in="SourceGraphic" in2="effect1_dropShadow_152_552" result="shape"/>
    </filter>
    </defs>
    </svg>
    