<svg width="238" height="240" viewBox="0 0 238 240" fill="none" xmlns="http://www.w3.org/2000/svg">
    <g filter="url(#filter0_d_153_556)">
    <path fill-rule="evenodd" clip-rule="evenodd" d="M118.869 55.616C139.226 54.5025 144.206 18.9433 164.277 15.3579C179.495 12.6392 198.188 25.8321 202.712 40.6383C208.456 59.4404 196.667 79.3187 189.396 97.5831C184.739 109.284 162.06 117.031 167.851 128.212C177.891 147.598 221.643 140.63 222.979 162.428C224.077 180.339 181.728 157.828 170.525 171.831C159.771 185.272 187.849 211.929 174.594 222.904C162.508 232.911 147.779 203.843 132.099 203.647C120.315 203.499 111.543 229.208 102.215 221.996C89.201 211.934 101.395 188.243 93.4977 173.801C89.9808 167.37 79.0284 171.229 72.5676 167.78C64.8845 163.679 54.5525 160.154 52.2034 151.757C49.8501 143.345 65.3362 135.144 61.2745 127.413C51.0175 107.89 14.4774 103.011 15.0057 80.9568C15.398 64.5774 51.0886 82.5772 62.6266 70.9634C75.0124 58.4962 58.4011 24.8459 75.3431 20.2228C93.5287 15.2604 100.049 56.6456 118.869 55.616Z" fill="#C53030"/>
    <path fill-rule="evenodd" clip-rule="evenodd" d="M80.5655 48.9838C80.9378 44.0895 75.8375 37.8889 79.689 34.8447C83.1959 32.0728 87.9126 37.5747 91.2913 40.5061C93.4778 42.4032 93.5081 45.4995 94.8961 48.0387C96.5609 51.0842 100.305 53.1409 100.091 56.6033C99.8324 60.764 97.8367 66.0763 93.731 66.8143C89.5488 67.566 87.3005 62.03 83.8719 59.5184C81.8932 58.0688 78.8609 57.7222 78.1268 55.3832C77.4158 53.1181 80.3855 51.3503 80.5655 48.9838Z" fill="#E53E3E"/>
    <path fill-rule="evenodd" clip-rule="evenodd" d="M89.1501 149.643C89.0173 153.626 87.671 158.333 83.9868 159.933C80.4476 161.47 77.1506 157.306 73.3675 156.496C70.2685 155.832 66.7792 157.609 64.255 155.707C61.246 153.439 58.4227 149.602 59.4538 146.008C60.4694 142.468 65.6218 142.669 68.6191 140.495C71.4241 138.46 72.6521 134.031 76.1318 133.909C79.7535 133.782 82.3543 137.154 84.6534 139.933C87.0236 142.797 89.2732 145.947 89.1501 149.643Z" fill="#E53E3E"/>
    </g>
    <defs>
    <filter id="filter0_d_153_556" x="0" y="0" width="238" height="240" filterUnits="userSpaceOnUse" color-interpolation-filters="sRGB">
    <feFlood flood-opacity="0" result="BackgroundImageFix"/>
    <feColorMatrix in="SourceAlpha" type="matrix" values="0 0 0 0 0 0 0 0 0 0 0 0 0 0 0 0 0 0 127 0" result="hardAlpha"/>
    <feOffset/>
    <feGaussianBlur stdDeviation="7.5"/>
    <feComposite in2="hardAlpha" operator="out"/>
    <feColorMatrix type="matrix" values="0 0 0 0 0 0 0 0 0 0 0 0 0 0 0 0 0 0 0.62 0"/>
    <feBlend mode="normal" in2="BackgroundImageFix" result="effect1_dropShadow_153_556"/>
    <feBlend mode="normal" in="SourceGraphic" in2="effect1_dropShadow_153_556" result="shape"/>
    </filter>
    </defs>
    </svg>
    